<svg xmlns="http://www.w3.org/2000/svg" viewBox="0 0 24 24" fill="none" stroke="currentColor" stroke-width="2" stroke-linecap="round" stroke-linejoin="round"><path d="M5.5 15A2.5 2.5 0 0 1 8 12.5h1a2.5 2.5 0 0 1 2.5 2.5V16a1 1 0 0 1-1 1H4.5a1.5 1.5 0 0 1 0-3h1M17.5 15A3.5 3.5 0 1 0 14 11.5v1"></path><path d="M17.5 15h-4a2.5 2.5 0 0 0-2.5 2.5v0a.5.5 0 0 0 .5.5h6a3.5 3.5 0 0 0 0-7z" fill="#0078D4" stroke="none"/></svg>
Wait, that's a cloud icon approximation.
Let's use a real OneDrive path.
<svg xmlns="http://www.w3.org/2000/svg" viewBox="0 0 64 64"><path fill="#0277bd" d="M42.2 26.6c0-.2.1-.4.1-.5 0-5.8-4.7-10.5-10.5-10.5-4.5 0-8.3 2.8-9.9 6.8-.7-.2-1.5-.4-2.2-.4-4.6 0-8.3 3.7-8.3 8.3 0 1.8.6 3.5 1.6 4.9H10c-3.1 0-7.3 2.2-7.3 7 0 3.7 3 6.8 6.8 6.8h11.9c0-5 3.7-9.1 8.5-9.8v-2.3c0-3.9 3.1-7 7-7 2.1 0 4 .9 5.3 2.5.5-.9.9-1.9.9-3l-.9-2.8z"/><path fill="#01579b" d="M56.8 45.3c1.5-1.5 2.3-3.6 2.3-5.8 0-4.6-3.7-8.3-8.3-8.3-1 0-1.9.2-2.8.5-.1-4.7-4-8.5-8.8-8.5-2.6 0-5 1.1-6.7 2.9-1.3-1.6-3.2-2.5-5.3-2.5-3.9 0-7 3.1-7 7v2.3c-4.8.7-8.5 4.8-8.5 9.8h36.7c3.1-.1 6.2-.9 8.4-3.1z"/></svg>
