<svg xmlns="http://www.w3.org/2000/svg" viewBox="0 0 24 24">
  <path fill="#3F51B5" d="M12 2C6.48 2 2 6.48 2 12s4.48 10 10 10 10-4.48 10-10S17.52 2 12 2zm1.41 16.09c-2.3 0-4.18-1.74-4.18-4.09h1.9c0 1.25.96 2.26 2.27 2.26 1.32 0 2.28-1.01 2.28-2.26 0-1.25-.96-2.26-2.27-2.26h-.27v-1.83h.27c2.3 0 4.18 1.74 4.18 4.09s-1.88 4.09-4.18 4.09z"/>
  <path fill="#3F51B5" d="M10.86 5.91c2.3 0 4.18 1.74 4.18 4.09h-1.9c0-1.25-.96-2.26-2.27-2.26-1.32 0-2.28 1.01-2.28 2.26 0 1.25.96 2.26 2.27 2.26h.27v1.83h-.27c-2.3 0-4.18-1.74-4.18-4.09s1.88-4.09 4.18-4.09z"/>
</svg>
